<svg xmlns="http://www.w3.org/2000/svg" viewBox="0 0 32 32" width="32" height="32">
  <!-- Pixel computer icon -->
  <!-- Monitor base -->
  <rect x="10" y="22" width="12" height="2" fill="#404040"/>
  <rect x="12" y="24" width="8" height="1" fill="#404040"/>
  
  <!-- Monitor screen -->
  <rect x="6" y="4" width="20" height="16" fill="#c0c0c0"/>
  <rect x="6" y="4" width="20" height="2" fill="#000080"/>
  <rect x="7" y="5" width="18" height="1" fill="#ffffff"/>
  
  <!-- Screen content (pixel pattern) -->
  <rect x="8" y="7" width="16" height="12" fill="#000000"/>
  <rect x="9" y="8" width="2" height="2" fill="#00ff00"/>
  <rect x="12" y="8" width="2" height="2" fill="#00ff00"/>
  <rect x="15" y="8" width="2" height="2" fill="#00ff00"/>
  <rect x="18" y="8" width="2" height="2" fill="#00ff00"/>
  <rect x="21" y="8" width="2" height="2" fill="#00ff00"/>
  <rect x="9" y="11" width="2" height="2" fill="#00ff00"/>
  <rect x="12" y="11" width="2" height="2" fill="#00ff00"/>
  <rect x="15" y="11" width="2" height="2" fill="#00ff00"/>
  <rect x="18" y="11" width="2" height="2" fill="#00ff00"/>
  <rect x="21" y="11" width="2" height="2" fill="#00ff00"/>
  
  <!-- Monitor bezel -->
  <rect x="6" y="4" width="20" height="16" fill="none" stroke="#404040" stroke-width="1"/>
  <rect x="5" y="3" width="22" height="18" fill="none" stroke="#ffffff" stroke-width="1"/>
</svg>

